<svg width="25" height="32" viewBox="0 0 25 32" fill="none" xmlns="http://www.w3.org/2000/svg">
<g clip-path="url(#clip0_325_37176)">
<path d="M6.75 4.25L7.59115 13.9233C7.68102 14.9568 8.54622 15.75 9.58363 15.75H14.4164C15.4538 15.75 16.319 14.9568 16.4088 13.9233L17.25 4.25" stroke="#747488" stroke-width="1.5" stroke-linecap="round" stroke-linejoin="round"/>
<path d="M9.75 4V3.25C9.75 2.14543 10.6454 1.25 11.75 1.25H12.25C13.3546 1.25 14.25 2.14543 14.25 3.25V4" stroke="#747488" stroke-width="1.5" stroke-linecap="round" stroke-linejoin="round"/>
<path d="M5 4.25H19" stroke="#747488" stroke-width="1.5" stroke-linecap="round" stroke-linejoin="round"/>
</g>
<path d="M1.064 28.5C0.936 28.5 0.834667 28.4653 0.76 28.396C0.690667 28.3213 0.656 28.2227 0.656 28.1V23.26C0.656 23.1373 0.690667 23.0413 0.76 22.972C0.834667 22.8973 0.936 22.86 1.064 22.86H4.008C4.13067 22.86 4.224 22.8893 4.288 22.948C4.35733 23.0067 4.392 23.0893 4.392 23.196C4.392 23.3027 4.35733 23.3853 4.288 23.444C4.224 23.4973 4.13067 23.524 4.008 23.524H1.464V25.3H3.848C3.97067 25.3 4.064 25.3293 4.128 25.388C4.19733 25.4467 4.232 25.5293 4.232 25.636C4.232 25.7427 4.19733 25.8253 4.128 25.884C4.064 25.9427 3.97067 25.972 3.848 25.972H1.464V27.836H4.008C4.264 27.836 4.392 27.9453 4.392 28.164C4.392 28.2707 4.35733 28.3533 4.288 28.412C4.224 28.4707 4.13067 28.5 4.008 28.5H1.064ZM8.52769 27.892C8.60769 27.972 8.64769 28.0653 8.64769 28.172C8.64769 28.2733 8.61035 28.3613 8.53569 28.436C8.46635 28.5053 8.38102 28.54 8.27969 28.54C8.17835 28.54 8.08502 28.4947 7.99969 28.404L6.77569 27.028L5.55969 28.404C5.47435 28.4947 5.38102 28.54 5.27969 28.54C5.17835 28.54 5.09035 28.5027 5.01569 28.428C4.94635 28.3533 4.91169 28.2653 4.91169 28.164C4.91169 28.0627 4.94902 27.972 5.02369 27.892L6.28769 26.5L5.08769 25.164C5.00769 25.0733 4.96769 24.9827 4.96769 24.892C4.96769 24.7907 5.00502 24.7053 5.07969 24.636C5.15435 24.5613 5.23969 24.524 5.33569 24.524C5.43702 24.524 5.53035 24.5693 5.61569 24.66L6.77569 25.972L7.93569 24.66C8.02102 24.5693 8.11702 24.524 8.22369 24.524C8.31969 24.524 8.40502 24.5613 8.47969 24.636C8.55435 24.7053 8.59169 24.7907 8.59169 24.892C8.59169 24.9933 8.55169 25.084 8.47169 25.164L7.27169 26.5L8.52769 27.892ZM11.0367 28.556C10.658 28.556 10.3247 28.4733 10.0367 28.308C9.75402 28.1427 9.53269 27.908 9.37269 27.604C9.21802 27.3 9.14069 26.948 9.14069 26.548C9.14069 26.1427 9.22069 25.7853 9.38069 25.476C9.54602 25.1667 9.77535 24.9267 10.0687 24.756C10.362 24.5853 10.698 24.5 11.0767 24.5C11.2794 24.5 11.482 24.5293 11.6847 24.588C11.8927 24.6467 12.0767 24.7267 12.2367 24.828C12.4074 24.9453 12.4927 25.0813 12.4927 25.236C12.4927 25.3267 12.4687 25.404 12.4207 25.468C12.3727 25.5267 12.3114 25.556 12.2367 25.556C12.1887 25.556 12.1407 25.5453 12.0927 25.524C12.0447 25.4973 11.9834 25.46 11.9087 25.412C11.7754 25.3267 11.65 25.2627 11.5327 25.22C11.4207 25.172 11.2847 25.148 11.1247 25.148C10.762 25.148 10.4794 25.2707 10.2767 25.516C10.0794 25.7613 9.98069 26.1027 9.98069 26.54C9.98069 26.9773 10.0794 27.316 10.2767 27.556C10.474 27.7907 10.754 27.908 11.1167 27.908C11.2767 27.908 11.418 27.884 11.5407 27.836C11.6634 27.788 11.7887 27.724 11.9167 27.644C11.9754 27.6067 12.034 27.5747 12.0927 27.548C12.1514 27.5213 12.2047 27.508 12.2527 27.508C12.3274 27.508 12.3887 27.54 12.4367 27.604C12.4847 27.6627 12.5087 27.7373 12.5087 27.828C12.5087 27.9027 12.4874 27.972 12.4447 28.036C12.4074 28.0947 12.3407 28.156 12.2447 28.22C12.0847 28.3267 11.898 28.4093 11.6847 28.468C11.4714 28.5267 11.2554 28.556 11.0367 28.556ZM13.6399 28.54C13.5225 28.54 13.4239 28.508 13.3439 28.444C13.2692 28.38 13.2319 28.284 13.2319 28.156V23.212C13.2319 23.084 13.2692 22.988 13.3439 22.924C13.4239 22.8547 13.5225 22.82 13.6399 22.82C13.7572 22.82 13.8532 22.8547 13.9279 22.924C14.0025 22.988 14.0399 23.084 14.0399 23.212V28.156C14.0399 28.284 14.0025 28.38 13.9279 28.444C13.8532 28.508 13.7572 28.54 13.6399 28.54ZM18.1934 24.516C18.316 24.516 18.412 24.5507 18.4814 24.62C18.556 24.6893 18.5934 24.7853 18.5934 24.908V28.164C18.5934 28.276 18.556 28.3667 18.4814 28.436C18.4067 28.5053 18.308 28.54 18.1854 28.54C18.0734 28.54 17.9827 28.508 17.9134 28.444C17.844 28.3747 17.8094 28.284 17.8094 28.172V27.868C17.6867 28.092 17.516 28.2627 17.2974 28.38C17.084 28.4973 16.844 28.556 16.5774 28.556C15.628 28.556 15.1534 28.0333 15.1534 26.988V24.908C15.1534 24.7853 15.188 24.6893 15.2574 24.62C15.332 24.5507 15.4334 24.516 15.5614 24.516C15.684 24.516 15.78 24.5507 15.8494 24.62C15.924 24.6893 15.9614 24.7853 15.9614 24.908V26.98C15.9614 27.2947 16.0254 27.5267 16.1534 27.676C16.2814 27.8253 16.4787 27.9 16.7454 27.9C17.06 27.9 17.3107 27.7987 17.4974 27.596C17.6894 27.3933 17.7854 27.124 17.7854 26.788V24.908C17.7854 24.7907 17.8227 24.6973 17.8974 24.628C17.972 24.5533 18.0707 24.516 18.1934 24.516ZM20.1321 28.54C20.0147 28.54 19.9161 28.508 19.8361 28.444C19.7614 28.38 19.7241 28.284 19.7241 28.156V24.908C19.7241 24.78 19.7614 24.684 19.8361 24.62C19.9161 24.5507 20.0147 24.516 20.1321 24.516C20.2494 24.516 20.3454 24.5507 20.4201 24.62C20.4947 24.684 20.5321 24.78 20.5321 24.908V28.156C20.5321 28.284 20.4947 28.38 20.4201 28.444C20.3454 28.508 20.2494 28.54 20.1321 28.54ZM20.1321 23.732C19.9774 23.732 19.8547 23.6893 19.7641 23.604C19.6734 23.5187 19.6281 23.4067 19.6281 23.268C19.6281 23.1293 19.6734 23.02 19.7641 22.94C19.8547 22.8547 19.9774 22.812 20.1321 22.812C20.2814 22.812 20.4014 22.8547 20.4921 22.94C20.5881 23.02 20.6361 23.1293 20.6361 23.268C20.6361 23.4067 20.5907 23.5187 20.5001 23.604C20.4094 23.6893 20.2867 23.732 20.1321 23.732ZM23.7096 24.516C23.9656 24.5 24.0936 24.6093 24.0936 24.844C24.0936 24.9613 24.0642 25.0493 24.0056 25.108C23.9469 25.1667 23.8456 25.2013 23.7016 25.212L23.4616 25.236C23.1256 25.268 22.8749 25.3853 22.7096 25.588C22.5496 25.7907 22.4696 26.036 22.4696 26.324V28.156C22.4696 28.284 22.4322 28.38 22.3576 28.444C22.2829 28.508 22.1869 28.54 22.0696 28.54C21.9522 28.54 21.8536 28.508 21.7736 28.444C21.6989 28.38 21.6616 28.284 21.6616 28.156V24.9C21.6616 24.7773 21.6989 24.684 21.7736 24.62C21.8536 24.5507 21.9522 24.516 22.0696 24.516C22.1762 24.516 22.2642 24.5507 22.3336 24.62C22.4082 24.684 22.4456 24.7747 22.4456 24.892V25.276C22.5522 25.0413 22.7069 24.8627 22.9096 24.74C23.1122 24.6173 23.3416 24.5453 23.5976 24.524L23.7096 24.516Z" fill="#747488"/>
<defs>
<clipPath id="clip0_325_37176">
<rect width="17" height="16" fill="white" transform="translate(4 0.5)"/>
</clipPath>
</defs>
</svg>
